<?xml version="1.0" encoding="UTF-8"?>
<svg version="1.1" xmlns="http://www.w3.org/2000/svg" width="512" height="512">
<path d="M0 0 C1.09453491 -0.00630432 2.18906982 -0.01260864 3.31677246 -0.019104 C5.09646423 -0.01303131 5.09646423 -0.01303131 6.91210938 -0.00683594 C8.1253186 -0.00874939 9.33852783 -0.01066284 10.58850098 -0.01263428 C13.15747281 -0.01399728 15.7264515 -0.01029286 18.29541016 -0.00195312 C22.23941441 0.00874446 26.18296313 -0.00184487 30.12695312 -0.01464844 C32.61783955 -0.01332686 35.1087257 -0.01076452 37.59960938 -0.00683594 C38.78607056 -0.0108844 39.97253174 -0.01493286 41.19494629 -0.019104 C42.83674866 -0.00964752 42.83674866 -0.00964752 44.51171875 0 C45.47831421 0.00159119 46.44490967 0.00318237 47.4407959 0.00482178 C49.75585938 0.25878906 49.75585938 0.25878906 51.75585938 2.25878906 C52.41617224 6.27962275 51.78139292 8.61377334 49.56835938 11.90722656 C48.64518918 13.16010039 47.70720932 14.40217657 46.75585938 15.63378906 C46.27890625 16.27445313 45.80195313 16.91511719 45.31054688 17.57519531 C44.13834459 19.14594637 42.94878845 20.7037208 41.75585938 22.25878906 C45.66267487 28.31174518 45.66267487 28.31174518 50.13085938 33.94628906 C52.23510485 36.94079224 52.30139281 38.67385508 51.75585938 42.25878906 C50.16356693 44.38468188 49.29151345 45.16707802 46.64875793 45.61955261 C45.83823471 45.61289078 45.02771149 45.60622894 44.19262695 45.59936523 C43.27189896 45.59913864 42.35117096 45.59891205 41.40254211 45.59867859 C40.41183212 45.58319473 39.42112213 45.56771088 38.40039062 45.55175781 C37.3836174 45.54751297 36.36684418 45.54326813 35.31925964 45.53889465 C32.06869126 45.52208904 28.81874068 45.48443288 25.56835938 45.44628906 C23.36589436 45.43124468 21.16341965 45.41755585 18.9609375 45.40527344 C13.55881473 45.37472996 8.15802936 45.31601095 2.75585938 45.25878906 C2.75585938 52.84878906 2.75585938 60.43878906 2.75585938 68.25878906 C6.25824219 68.22398438 9.760625 68.18917969 13.36914062 68.15332031 C16.75479314 68.12993568 20.14043671 68.11171283 23.52612305 68.09399414 C25.88228369 68.07889159 28.23841615 68.05840815 30.59448242 68.0324707 C33.97777249 67.9961525 37.36069145 67.97907739 40.74414062 67.96582031 C42.32863762 67.94259453 42.32863762 67.94259453 43.94514465 67.91889954 C45.41633003 67.91855965 45.41633003 67.91855965 46.91723633 67.91821289 C48.21296318 67.90822014 48.21296318 67.90822014 49.53486633 67.89802551 C52.25790543 68.34033813 53.13788917 69.05439581 54.75585938 71.25878906 C55.09643555 74.16967773 55.09643555 74.16967773 55.04882812 77.67675781 C55.03916016 78.93037109 55.02949219 80.18398437 55.01953125 81.47558594 C54.99439453 82.78591797 54.96925781 84.09625 54.94335938 85.44628906 C54.92830905 86.7815607 54.91462124 88.11684843 54.90234375 89.45214844 C54.86693632 92.72143483 54.81754828 95.98990999 54.75585938 99.25878906 C56.33052979 99.24307861 56.33052979 99.24307861 57.93701172 99.22705078 C61.8245097 99.19090453 65.71199278 99.16790828 69.59960938 99.14892578 C71.28355404 99.1388559 72.96748117 99.12519918 74.65136719 99.10791016 C77.06905438 99.08370481 79.48651081 99.0723161 81.90429688 99.06347656 C82.65955658 99.05315399 83.41481628 99.04283142 84.19296265 99.03219604 C86.04879917 99.03179588 87.90405218 99.1365619 89.75585938 99.25878906 C91.75585938 101.25878906 91.75585938 101.25878906 91.98291016 104.23974609 C91.97243652 105.4861084 91.96196289 106.7324707 91.95117188 108.01660156 C91.94692703 109.01117874 91.94692703 109.01117874 91.94259644 110.02584839 C91.93139373 112.14534489 91.90628988 114.26442011 91.88085938 116.38378906 C91.87082965 117.81998088 91.86170379 119.25617932 91.85351562 120.69238281 C91.83145438 124.21465534 91.79692431 127.7366811 91.75585938 131.25878906 C92.30031141 131.25602368 92.84476345 131.2532583 93.40571404 131.25040913 C106.64187115 131.18421064 119.87799935 131.13472985 133.11428642 131.10335255 C139.51521836 131.08767042 145.91603117 131.06638566 152.31689453 131.0324707 C158.48954572 130.99996815 164.66208204 130.98195526 170.83481216 130.97415733 C173.194437 130.96859743 175.55405527 130.95774094 177.91363144 130.94159889 C181.20867443 130.9199458 184.50323762 130.91681707 187.79833984 130.91821289 C188.78232758 130.90742706 189.76631531 130.89664124 190.78012085 130.88552856 C191.67477051 130.88965256 192.56942017 130.89377655 193.49118042 130.89802551 C194.66093572 130.89387744 194.66093572 130.89387744 195.85432243 130.88964558 C196.48182962 131.01146293 197.10933681 131.13328028 197.75585938 131.25878906 C199.95927372 134.56391058 200.00511615 135.53643291 200.00195503 139.37561321 C200.00593713 140.44053861 200.00991923 141.50546401 200.01402199 142.60265988 C200.00819631 143.77676964 200.00237063 144.9508794 199.99636841 146.16056824 C199.99893168 148.02651303 199.99893168 148.02651303 200.00154674 149.93015367 C200.00427758 153.38953803 199.99800376 156.84869756 199.98799062 160.3080548 C199.97937199 164.03605328 199.98227515 167.76404454 199.98379517 171.49205017 C199.98484503 177.9532302 199.9785579 184.4143699 199.96731949 190.87553978 C199.9510811 200.21735742 199.94585819 209.55915553 199.94334351 218.90098576 C199.93896379 234.05664154 199.92564719 249.21227582 199.90673828 264.36791992 C199.88838663 279.09220268 199.87422663 293.8164796 199.86572266 308.54077148 C199.86519721 309.44802997 199.86467176 310.35528845 199.86413039 311.29003962 C199.86152036 315.84138534 199.85899293 320.39273111 199.85650659 324.9440769 C199.83576547 362.7156628 199.80053242 400.48722426 199.75585938 438.25878906 C200.35124512 438.24307861 200.94663086 438.22736816 201.56005859 438.21118164 C204.2502294 438.14893106 206.94024894 438.10983123 209.63085938 438.07128906 C211.03658203 438.03358398 211.03658203 438.03358398 212.47070312 437.99511719 C213.36660156 437.98544922 214.2625 437.97578125 215.18554688 437.96582031 C216.01296387 437.95010986 216.84038086 437.93439941 217.69287109 437.91821289 C218.37365723 438.03060303 219.05444336 438.14299316 219.75585938 438.25878906 C221.82309651 441.35964477 222.0008336 441.98810587 221.95117188 445.48925781 C221.94472656 446.29169922 221.93828125 447.09414063 221.93164062 447.92089844 C221.91488281 448.75427734 221.898125 449.58765625 221.88085938 450.44628906 C221.87183594 451.29126953 221.8628125 452.13625 221.85351562 453.00683594 C221.82996641 455.09094149 221.79409585 457.17490123 221.75585938 459.25878906 C222.32095215 459.24831543 222.88604492 459.2378418 223.46826172 459.22705078 C226.0224159 459.18554118 228.57649919 459.15947947 231.13085938 459.13378906 C232.0203125 459.11703125 232.90976562 459.10027344 233.82617188 459.08300781 C234.67695313 459.0765625 235.52773438 459.07011719 236.40429688 459.06347656 C237.18981934 459.05300293 237.9753418 459.0425293 238.78466797 459.03173828 C240.75585938 459.25878906 240.75585938 459.25878906 242.75585938 461.25878906 C243.01464844 463.93261719 243.01464844 463.93261719 243.02148438 467.29003906 C243.0240625 468.49273437 243.02664063 469.69542969 243.02929688 470.93457031 C243.0215625 472.1965625 243.01382812 473.45855469 243.00585938 474.75878906 C243.01359375 476.02078125 243.02132813 477.28277344 243.02929688 478.58300781 C243.02542969 480.38705078 243.02542969 480.38705078 243.02148438 482.22753906 C243.01922852 483.33548828 243.01697266 484.4434375 243.01464844 485.58496094 C242.75585938 488.25878906 242.75585938 488.25878906 240.75585938 490.25878906 C238.11117598 490.45597832 235.57120985 490.52648015 232.92530823 490.51047134 C232.10305012 490.51337823 231.28079201 490.51628511 230.433617 490.51928008 C227.64846195 490.52664176 224.86352298 490.51960822 222.07836914 490.51275635 C220.07341428 490.51505835 218.06846027 490.51823311 216.06350803 490.52221084 C210.53070037 490.53060334 204.99796121 490.52641346 199.46515322 490.5202384 C193.50735274 490.51573303 187.54956445 490.52268811 181.59176636 490.52819824 C170.58720615 490.53659845 159.58266643 490.53584108 148.57810542 490.53037531 C138.41324346 490.52535117 128.24838956 490.52402753 118.08352661 490.52642059 C117.41018981 490.52657336 116.736853 490.52672613 116.04311205 490.52688353 C113.31006076 490.52750617 110.57700948 490.52814297 107.8439582 490.52880306 C82.18738459 490.53492591 56.53082498 490.52936645 30.87425353 490.51860927 C8.06232036 490.50911752 -14.74959047 490.50996675 -37.56152344 490.51953125 C-63.17011514 490.53023234 -88.77869446 490.53449174 -114.38728809 490.52830672 C-117.11546135 490.52766525 -119.8436346 490.52703958 -122.57180786 490.52642059 C-123.57948279 490.52618336 -123.57948279 490.52618336 -124.60751479 490.52594134 C-134.76787743 490.52366301 -144.92823113 490.52633323 -155.08859253 490.5313797 C-166.63729865 490.53708702 -178.18597968 490.53549916 -189.7346828 490.52481821 C-195.63253576 490.51954419 -201.53034328 490.51753403 -207.42819595 490.52411652 C-212.81915147 490.53004248 -218.21001911 490.5268568 -223.60096657 490.51616141 C-225.55920579 490.51391305 -227.51745232 490.51509545 -229.47568691 490.51991299 C-232.12176249 490.5259272 -234.76753043 490.5198258 -237.41358948 490.51047134 C-238.18747564 490.51515368 -238.9613618 490.51983601 -239.75869906 490.52466023 C-245.01583988 490.48708981 -245.01583988 490.48708981 -247.24414062 488.25878906 C-247.50292969 485.58496094 -247.50292969 485.58496094 -247.50976562 482.22753906 C-247.51234375 481.02484375 -247.51492187 479.82214844 -247.51757812 478.58300781 C-247.50984375 477.32101562 -247.50210938 476.05902344 -247.49414062 474.75878906 C-247.50574219 472.86580078 -247.50574219 472.86580078 -247.51757812 470.93457031 C-247.515 469.731875 -247.51242188 468.52917969 -247.50976562 467.29003906 C-247.50750977 466.18208984 -247.50525391 465.07414062 -247.50292969 463.93261719 C-247.24414062 461.25878906 -247.24414062 461.25878906 -245.24414062 459.25878906 C-243.27294922 459.03173828 -243.27294922 459.03173828 -240.89257812 459.06347656 C-240.04179687 459.06992187 -239.19101563 459.07636719 -238.31445312 459.08300781 C-237.425 459.09976562 -236.53554687 459.11652344 -235.61914062 459.13378906 C-234.72195312 459.1428125 -233.82476562 459.15183594 -232.90039062 459.16113281 C-230.68137477 459.18473936 -228.46288985 459.21766597 -226.24414062 459.25878906 C-226.26734375 457.99421875 -226.29054687 456.72964844 -226.31445312 455.42675781 C-226.33321189 453.76660746 -226.35141197 452.10645073 -226.36914062 450.44628906 C-226.38589844 449.61291016 -226.40265625 448.77953125 -226.41992188 447.92089844 C-226.42636719 447.11845703 -226.4328125 446.31601562 -226.43945312 445.48925781 C-226.44992676 444.7508667 -226.46040039 444.01247559 -226.47119141 443.25170898 C-226.24414062 441.25878906 -226.24414062 441.25878906 -224.24414062 438.25878906 C-222.18115234 437.91821289 -222.18115234 437.91821289 -219.67382812 437.96582031 C-218.77792969 437.97548828 -217.88203125 437.98515625 -216.95898438 437.99511719 C-216.02183594 438.02025391 -215.0846875 438.04539062 -214.11914062 438.07128906 C-213.17425781 438.08482422 -212.229375 438.09835937 -211.25585938 438.11230469 C-208.91805284 438.147726 -206.58137825 438.19711635 -204.24414062 438.25878906 C-204.24490007 437.61667345 -204.24565951 436.97455783 -204.24644196 436.31298417 C-204.29116492 398.28485341 -204.32549694 360.25672654 -204.34627128 322.22857488 C-204.3487728 317.66597371 -204.35136143 313.10337258 -204.35400391 308.54077148 C-204.35452853 307.63241153 -204.35505315 306.72405157 -204.35559367 305.78816555 C-204.36430439 291.06590323 -204.38007803 276.34365649 -204.39844622 261.62140342 C-204.41712672 246.52329422 -204.42825342 231.4251932 -204.43231761 216.32707292 C-204.43506652 207.00520425 -204.44375934 197.68337957 -204.45997356 188.36152444 C-204.47051762 181.97557026 -204.47374712 175.58963893 -204.47114338 169.20367666 C-204.46985805 165.51526448 -204.47187547 161.82692934 -204.48255157 158.13853073 C-204.49402449 154.14584763 -204.49013448 150.15326608 -204.48464966 146.16056824 C-204.49047534 144.98645848 -204.49630102 143.81234872 -204.50230324 142.60265988 C-204.49832115 141.53773448 -204.49433905 140.47280908 -204.49023628 139.37561321 C-204.49099572 138.45327253 -204.49175516 137.53093185 -204.49253762 136.58064145 C-204.24414062 134.25878906 -204.24414062 134.25878906 -202.24414062 131.25878906 C-200.34260368 130.88964558 -200.34260368 130.88964558 -197.97946167 130.89802551 C-196.63748718 130.89183952 -196.63748718 130.89183952 -195.2684021 130.88552856 C-194.28441437 130.89631439 -193.30042664 130.90710022 -192.28662109 130.91821289 C-190.7353653 130.91755577 -190.7353653 130.91755577 -189.152771 130.91688538 C-185.72210038 130.91898145 -182.29191375 130.9423514 -178.86132812 130.96582031 C-176.4876431 130.97141334 -174.11395462 130.97568482 -171.74026489 130.97868347 C-165.4831593 130.99015524 -159.22626157 131.01964259 -152.96923828 131.05279541 C-146.58824476 131.08344603 -140.20721775 131.09717809 -133.82617188 131.11230469 C-121.29873928 131.14450995 -108.77145099 131.19516039 -96.24414062 131.25878906 C-96.25461426 130.36047363 -96.26508789 129.4621582 -96.27587891 128.53662109 C-96.30993533 125.20814459 -96.33502681 121.87985284 -96.35400391 118.55126953 C-96.36407025 117.10983359 -96.37772443 115.66841811 -96.39501953 114.22705078 C-96.41924074 112.15684973 -96.43061704 110.0869183 -96.43945312 108.01660156 C-96.44992676 106.77023926 -96.46040039 105.52387695 -96.47119141 104.23974609 C-96.24414062 101.25878906 -96.24414062 101.25878906 -94.24414062 99.25878906 C-91.59122305 99.08368521 -89.04427889 99.02723424 -86.39257812 99.06347656 C-85.61854645 99.06630646 -84.84451477 99.06913635 -84.04702759 99.072052 C-81.57090906 99.08326153 -79.09515012 99.10836704 -76.61914062 99.13378906 C-74.94206251 99.14381789 -73.26497873 99.15294391 -71.58789062 99.16113281 C-67.4731684 99.18320332 -63.35871551 99.21773805 -59.24414062 99.25878906 C-59.2677063 98.01005005 -59.2677063 98.01005005 -59.29174805 96.73608398 C-59.34290704 93.64431051 -59.38050543 90.55275288 -59.40893555 87.46069336 C-59.43142396 85.46551205 -59.4695426 83.47052693 -59.5078125 81.47558594 C-59.52231445 79.59516602 -59.52231445 79.59516602 -59.53710938 77.67675781 C-59.56067505 75.94075317 -59.56067505 75.94075317 -59.5847168 74.16967773 C-59.24414062 71.25878906 -59.24414062 71.25878906 -58.02526855 69.59814453 C-55.68933299 67.84159015 -54.31158786 67.89580104 -51.40551758 67.91821289 C-50.42472733 67.91843948 -49.44393707 67.91866608 -48.4334259 67.91889954 C-47.37709457 67.93438339 -46.32076324 67.94986725 -45.23242188 67.96582031 C-44.14906052 67.97006516 -43.06569916 67.97431 -41.94950867 67.97868347 C-38.48496785 67.99549337 -35.02100601 68.03315058 -31.55664062 68.07128906 C-29.20964381 68.08633288 -26.86263789 68.10002181 -24.515625 68.11230469 C-18.75826557 68.14540445 -13.00124446 68.19562701 -7.24414062 68.25878906 C-7.24858185 67.43637726 -7.25302307 66.61396545 -7.25759888 65.76663208 C-7.29762734 58.0265699 -7.32810038 50.28655771 -7.34776497 42.54641914 C-7.35821449 38.56687133 -7.37239485 34.58740885 -7.39501953 30.60791016 C-7.41670648 26.76945021 -7.42870045 22.93107247 -7.43389511 19.092556 C-7.43759835 17.62608419 -7.44482962 16.15961701 -7.45560074 14.69318008 C-7.47006081 12.64349801 -7.47212091 10.59415824 -7.47119141 8.54443359 C-7.47563263 7.37639191 -7.48007385 6.20835022 -7.48464966 5.00491333 C-7.03747247 -0.10094117 -4.4627152 0.00734642 0 0 Z M-48.24414062 79.25878906 C-48.24414062 85.85878906 -48.24414062 92.45878906 -48.24414062 99.25878906 C-17.88414062 99.25878906 12.47585938 99.25878906 43.75585938 99.25878906 C43.75585938 92.65878906 43.75585938 86.05878906 43.75585938 79.25878906 C13.39585937 79.25878906 -16.96414062 79.25878906 -48.24414062 79.25878906 Z M-193.24414062 142.25878906 C-193.24414062 239.93878906 -193.24414062 337.61878906 -193.24414062 438.25878906 C-161.23414063 438.25878906 -129.22414063 438.25878906 -96.24414062 438.25878906 C-96.24414062 340.57878906 -96.24414062 242.89878906 -96.24414062 142.25878906 C-128.25414062 142.25878906 -160.26414062 142.25878906 -193.24414062 142.25878906 Z M91.75585938 142.25878906 C91.75585938 239.93878906 91.75585938 337.61878906 91.75585938 438.25878906 C123.76585937 438.25878906 155.77585937 438.25878906 188.75585938 438.25878906 C188.75585938 340.57878906 188.75585938 242.89878906 188.75585938 142.25878906 C156.74585938 142.25878906 124.73585938 142.25878906 91.75585938 142.25878906 Z M-59.24414062 179.25878906 C-59.24414062 191.13878906 -59.24414062 203.01878906 -59.24414062 215.25878906 C-47.03414062 215.25878906 -34.82414062 215.25878906 -22.24414062 215.25878906 C-22.24414062 203.37878906 -22.24414062 191.49878906 -22.24414062 179.25878906 C-34.45414063 179.25878906 -46.66414063 179.25878906 -59.24414062 179.25878906 Z M17.75585938 179.25878906 C17.75585938 191.13878906 17.75585938 203.01878906 17.75585938 215.25878906 C29.96585937 215.25878906 42.17585938 215.25878906 54.75585938 215.25878906 C54.75585938 203.37878906 54.75585938 191.49878906 54.75585938 179.25878906 C42.54585938 179.25878906 30.33585937 179.25878906 17.75585938 179.25878906 Z M-59.24414062 263.25878906 C-59.24414062 275.46878906 -59.24414062 287.67878906 -59.24414062 300.25878906 C-47.03414062 300.25878906 -34.82414062 300.25878906 -22.24414062 300.25878906 C-22.24414062 288.04878906 -22.24414062 275.83878906 -22.24414062 263.25878906 C-34.45414063 263.25878906 -46.66414063 263.25878906 -59.24414062 263.25878906 Z M17.75585938 263.25878906 C17.75585938 275.46878906 17.75585938 287.67878906 17.75585938 300.25878906 C29.96585937 300.25878906 42.17585938 300.25878906 54.75585938 300.25878906 C54.75585938 288.04878906 54.75585938 275.83878906 54.75585938 263.25878906 C42.54585938 263.25878906 30.33585937 263.25878906 17.75585938 263.25878906 Z M-59.24414062 348.25878906 C-59.24414062 377.95878906 -59.24414062 407.65878906 -59.24414062 438.25878906 C-42.08414063 438.25878906 -24.92414063 438.25878906 -7.24414062 438.25878906 C-7.24414062 408.55878906 -7.24414062 378.85878906 -7.24414062 348.25878906 C-24.40414062 348.25878906 -41.56414062 348.25878906 -59.24414062 348.25878906 Z M3.75585938 348.25878906 C3.75585938 377.95878906 3.75585938 407.65878906 3.75585938 438.25878906 C20.58585937 438.25878906 37.41585938 438.25878906 54.75585938 438.25878906 C54.75585938 408.55878906 54.75585938 378.85878906 54.75585938 348.25878906 C37.92585938 348.25878906 21.09585937 348.25878906 3.75585938 348.25878906 Z " fill="#665AA6" transform="translate(258.244140625,10.7412109375)"/>
<path d="M0 0 C55.44 0 110.88 0 168 0 C168 108.57 168 217.14 168 329 C162.39 329 156.78 329 151 329 C150.99191315 327.77668976 150.98382629 326.55337952 150.97549438 325.29299927 C150.89813555 313.7855023 150.81042258 302.27812506 150.71247292 290.77078438 C150.66244696 284.85421231 150.61611762 278.93765864 150.578125 273.02099609 C150.54135163 267.31510082 150.49501366 261.60935726 150.44193649 255.90359116 C150.42335016 253.72264126 150.40825802 251.54165879 150.39665604 249.36066055 C150.37986593 246.31466255 150.35084884 243.26901525 150.31884766 240.22314453 C150.31668747 239.31396271 150.31452728 238.40478088 150.31230164 237.4680481 C150.47857909 232.74979161 150.47857909 232.74979161 148 229 C145.66455827 228.69562966 145.66455827 228.69562966 142.91357422 228.74603271 C141.83670349 228.74039307 140.75983276 228.73475342 139.65032959 228.72894287 C137.87048676 228.73501556 137.87048676 228.73501556 136.0546875 228.74121094 C134.809151 228.7377063 133.5636145 228.73420166 132.28033447 228.73059082 C128.85885537 228.72328143 125.43761719 228.72501604 122.01615143 228.73134899 C118.44028899 228.73640262 114.86443705 228.73171932 111.28857422 228.72857666 C105.28285874 228.72493515 99.2771924 228.72974094 93.27148438 228.73925781 C86.32207488 228.75014274 79.37278273 228.74661729 72.42337608 228.735605 C66.46325868 228.72653737 60.50317665 228.72524427 54.54305458 228.73048234 C50.98048605 228.73360494 47.41797273 228.73400348 43.85540771 228.72740936 C39.88532935 228.72057464 35.91538307 228.73004012 31.9453125 228.74121094 C30.75875061 228.73716248 29.57218872 228.73311401 28.34967041 228.72894287 C26.73436432 228.73740234 26.73436432 228.73740234 25.08642578 228.74603271 C24.14695099 228.74678677 23.2074762 228.74754082 22.23953247 228.74831772 C19.79713729 228.78705292 19.79713729 228.78705292 18 231 C17.7818853 234.10243966 17.68852972 237.11814824 17.68115234 240.22314453 C17.67110672 241.1792865 17.6610611 242.13542847 17.65071106 243.12054443 C17.6197392 246.29129415 17.6028051 249.46195891 17.5859375 252.6328125 C17.56723711 254.82714577 17.54766456 257.02147178 17.5272522 259.21578979 C17.4758057 264.99928509 17.43624709 270.78280373 17.39910889 276.56640625 C17.35914754 282.4649031 17.3080194 288.36330178 17.2578125 294.26171875 C17.16090507 305.841077 17.07654787 317.42049052 17 329 C11.39 329 5.78 329 0 329 C0 220.43 0 111.86 0 0 Z M27 70 C27 81.88 27 93.76 27 106 C39.21 106 51.42 106 64 106 C64 94.12 64 82.24 64 70 C51.79 70 39.58 70 27 70 Z M104 70 C104 81.88 104 93.76 104 106 C116.21 106 128.42 106 141 106 C141 94.12 141 82.24 141 70 C128.79 70 116.58 70 104 70 Z M27 154 C27 166.21 27 178.42 27 191 C39.21 191 51.42 191 64 191 C64 178.79 64 166.58 64 154 C51.79 154 39.58 154 27 154 Z M104 154 C104 166.21 104 178.42 104 191 C116.21 191 128.42 191 141 191 C141 178.79 141 166.58 141 154 C128.79 154 116.58 154 104 154 Z " fill="#CDC1F4" transform="translate(172,120)"/>
<path d="M0 0 C155.1 0 310.2 0 470 0 C470 3.63 470 7.26 470 11 C314.9 11 159.8 11 0 11 C0 7.37 0 3.74 0 0 Z " fill="#CEC2F4" transform="translate(21,480)"/>
<path d="M0 0 C140.58 0 281.16 0 426 0 C426 3.63 426 7.26 426 11 C285.42 11 144.84 11 0 11 C0 7.37 0 3.74 0 0 Z " fill="#CEC2F4" transform="translate(43,459)"/>
<path d="M0 0 C1.00784546 -0.00938095 2.01569092 -0.0187619 3.05407715 -0.02842712 C4.13644653 -0.01719315 5.21881592 -0.00595917 6.33398438 0.00561523 C7.45083618 0.00416 8.56768799 0.00270477 9.71838379 0.00120544 C12.07872121 0.00286478 14.43906941 0.01442978 16.79931641 0.03515625 C20.41420404 0.06410065 24.02762458 0.05576699 27.64257812 0.04272461 C29.93555401 0.04896227 32.22852526 0.05735342 34.52148438 0.06811523 C36.14503845 0.06371178 36.14503845 0.06371178 37.8013916 0.05921936 C39.31315979 0.07824562 39.31315979 0.07824562 40.85546875 0.09765625 C42.18306213 0.10576073 42.18306213 0.10576073 43.53747559 0.11402893 C46.50595768 0.59549198 47.85179002 1.32550674 49.92773438 3.50170898 C50.42893982 5.85437012 50.42893982 5.85437012 50.42944336 8.65991211 C50.43882431 9.71110229 50.44820526 10.76229248 50.45787048 11.84533691 C50.44663651 12.9797522 50.43540253 14.11416748 50.42382812 15.28295898 C50.42528336 16.4479895 50.42673859 17.61302002 50.42823792 18.81335449 C50.42657695 21.27802021 50.41499381 23.74269609 50.39428711 26.20727539 C50.3653481 29.98685619 50.37367191 33.76503401 50.38671875 37.54467773 C50.3804812 39.93661166 50.37209014 42.32854114 50.36132812 44.72045898 C50.36426376 45.85487427 50.3671994 46.98928955 50.370224 48.15808105 C50.35119774 49.73486633 50.35119774 49.73486633 50.33178711 51.34350586 C50.32638412 52.26933472 50.32098114 53.19516357 50.31541443 54.14904785 C49.92773438 56.50170898 49.92773438 56.50170898 48.71813965 58.29884338 C46.33105885 59.90257938 44.74491286 59.88864193 41.87719727 59.90576172 C40.84925552 59.91844589 39.82131378 59.93113007 38.76222229 59.94419861 C37.09811562 59.93979515 37.09811562 59.93979515 35.40039062 59.93530273 C33.68969643 59.94316551 33.68969643 59.94316551 31.94444275 59.95118713 C29.53108535 59.95761445 27.11769666 59.95626123 24.7043457 59.94775391 C21.0080594 59.93924999 17.31332079 59.96798817 13.6171875 59.99975586 C11.27408901 60.00136804 8.93098777 60.00079002 6.58789062 59.99780273 C5.48051041 60.00903671 4.37313019 60.02027069 3.23219299 60.03184509 C2.20109909 60.02246414 1.17000519 60.01308319 0.10766602 60.00341797 C-0.79817734 60.0032518 -1.70402069 60.00308563 -2.63731384 60.00291443 C-5.91336846 59.32857811 -7.0849689 58.16018755 -9.07226562 55.50170898 C-9.5802002 53.1114502 -9.5802002 53.1114502 -9.58984375 50.42944336 C-9.60245239 49.4215979 -9.61506104 48.41375244 -9.62805176 47.37536621 C-9.61995483 46.29299683 -9.61185791 45.21062744 -9.60351562 44.09545898 C-9.60734253 42.97860718 -9.61116943 41.86175537 -9.6151123 40.71105957 C-9.61783318 38.35073952 -9.61045982 35.99038942 -9.59375 33.63012695 C-9.57234446 30.01502323 -9.59354741 26.40190706 -9.61914062 22.78686523 C-9.61649738 20.49389209 -9.61137248 18.20092019 -9.60351562 15.90795898 C-9.61161255 14.8255896 -9.61970947 13.74322021 -9.62805176 12.62805176 C-9.61544312 11.6202063 -9.60283447 10.61236084 -9.58984375 9.57397461 C-9.58666138 8.68891235 -9.583479 7.8038501 -9.5802002 6.89196777 C-8.45536432 1.5986702 -5.07618196 0.00095304 0 0 Z " fill="#685CA7" transform="translate(378.072265625,262.498291015625)"/>
<path d="M0 0 C1.00784546 -0.01268417 2.01569092 -0.02536835 3.05407715 -0.03843689 C4.13644653 -0.03550125 5.21881592 -0.03256561 6.33398438 -0.02954102 C8.00926208 -0.03740379 8.00926208 -0.03740379 9.71838379 -0.04542542 C12.07868621 -0.05184623 14.43902062 -0.05050789 16.79931641 -0.04199219 C20.41431496 -0.03347887 24.02773556 -0.06225046 27.64257812 -0.09399414 C29.9355464 -0.09560611 32.22851748 -0.0950287 34.52148438 -0.09204102 C35.60385376 -0.10327499 36.68622314 -0.11450897 37.8013916 -0.12608337 C38.80923706 -0.11670242 39.81708252 -0.10732147 40.85546875 -0.09765625 C41.74053101 -0.09749008 42.62559326 -0.09732391 43.53747559 -0.09715271 C46.78086917 0.58294374 47.95430869 1.77448618 49.92773438 4.40405273 C50.43566895 6.79431152 50.43566895 6.79431152 50.4453125 9.47631836 C50.45792114 10.48416382 50.47052979 11.49200928 50.48352051 12.53039551 C50.47542358 13.61276489 50.46732666 14.69513428 50.45898438 15.81030273 C50.46281128 16.92715454 50.46663818 18.04400635 50.47058105 19.19470215 C50.47330193 21.55502219 50.46592857 23.9153723 50.44921875 26.27563477 C50.42781321 29.89073848 50.44901616 33.50385466 50.47460938 37.11889648 C50.47196613 39.41186963 50.46684123 41.70484153 50.45898438 43.99780273 C50.4670813 45.08017212 50.47517822 46.1625415 50.48352051 47.27770996 C50.47091187 48.28555542 50.45830322 49.29340088 50.4453125 50.33178711 C50.44053894 51.65938049 50.44053894 51.65938049 50.43566895 53.01379395 C49.74651188 56.25685681 48.56253767 57.43278846 45.92773438 59.40405273 C43.49278259 59.90525818 43.49278259 59.90525818 40.74780273 59.90576172 C39.20116188 59.91983315 39.20116188 59.91983315 37.62327576 59.93418884 C36.51589554 59.92295486 35.40851532 59.91172089 34.26757812 59.90014648 C32.55544884 59.90232933 32.55544884 59.90232933 30.80873108 59.90455627 C28.39711961 59.90289695 25.98549758 59.89133213 23.57397461 59.87060547 C19.87568376 59.84163459 16.17882438 59.85000001 12.48046875 59.86303711 C10.13866489 59.85680036 7.79686556 59.84840992 5.45507812 59.83764648 C3.79097145 59.84204994 3.79097145 59.84204994 2.09324646 59.84654236 C0.55133385 59.8275161 0.55133385 59.8275161 -1.02172852 59.80810547 C-1.92677628 59.80270248 -2.83182404 59.7972995 -3.76429749 59.79173279 C-6.07226562 59.40405273 -6.07226562 59.40405273 -7.8626709 58.20118713 C-9.48987247 55.7836006 -9.45936114 54.15155512 -9.47631836 51.24584961 C-9.48900253 50.19465942 -9.50168671 49.14346924 -9.51475525 48.0604248 C-9.51181961 46.92600952 -9.50888397 45.79159424 -9.50585938 44.62280273 C-9.51110123 43.45777222 -9.51634308 42.2927417 -9.52174377 41.09240723 C-9.5281709 38.62777504 -9.52681811 36.16311221 -9.51831055 33.69848633 C-9.50979883 29.91879927 -9.53855788 26.1406217 -9.5703125 22.36108398 C-9.57192445 19.96915736 -9.57134711 17.57722804 -9.56835938 15.18530273 C-9.57959335 14.05088745 -9.59082733 12.91647217 -9.60240173 11.74768066 C-9.59302078 10.69649048 -9.58363983 9.64530029 -9.57397461 8.56225586 C-9.57380844 7.636427 -9.57364227 6.71059814 -9.57347107 5.75671387 C-9.07226562 3.40405273 -9.07226562 3.40405273 -7.35792542 1.60691833 C-4.69295226 0.20443291 -3.00205493 0.01832646 0 0 Z " fill="#685CA7" transform="translate(93.072265625,262.595947265625)"/>
<path d="M0 0 C1.05119019 -0.01268417 2.10238037 -0.02536835 3.1854248 -0.03843689 C4.31984009 -0.03550125 5.45425537 -0.03256561 6.62304688 -0.02954102 C7.78807739 -0.03478287 8.95310791 -0.04002472 10.15344238 -0.04542542 C12.61807457 -0.05185254 15.0827374 -0.05049975 17.54736328 -0.04199219 C21.32705034 -0.03348047 25.10522791 -0.06223953 28.88476562 -0.09399414 C31.27669225 -0.09560609 33.66862157 -0.09502875 36.06054688 -0.09204102 C37.7621698 -0.10889198 37.7621698 -0.10889198 39.49816895 -0.12608337 C40.54935913 -0.11670242 41.60054932 -0.10732147 42.68359375 -0.09765625 C43.60942261 -0.09749008 44.53525146 -0.09732391 45.48913574 -0.09715271 C47.84179688 0.40405273 47.84179688 0.40405273 49.64091492 2.11740112 C51.04671371 4.79424379 51.2162475 6.47818808 51.21411133 9.4921875 C51.22345451 11.00879723 51.22345451 11.00879723 51.23298645 12.55604553 C51.2237767 13.64155197 51.21456696 14.72705841 51.20507812 15.84545898 C51.20582588 17.5242942 51.20582588 17.5242942 51.20658875 19.23704529 C51.20424938 21.6015704 51.19452899 23.96609806 51.17797852 26.33056641 C51.15436431 29.95619889 51.15742159 33.58109716 51.1640625 37.20678711 C51.15848648 39.50301547 51.15137708 41.79924072 51.14257812 44.09545898 C51.14348953 45.18298965 51.14440094 46.27052032 51.14533997 47.39100647 C51.13580795 48.39892746 51.12627594 49.40684845 51.11645508 50.4453125 C51.11184769 51.33259537 51.1072403 52.21987823 51.10249329 53.13404846 C50.84179688 55.40405273 50.84179688 55.40405273 48.84179688 58.40405273 C46.5267334 58.78500366 46.5267334 58.78500366 43.59765625 58.79223633 C41.95585388 58.80642105 41.95585388 58.80642105 40.28088379 58.82089233 C39.09442261 58.81481964 37.90796143 58.80874695 36.68554688 58.80249023 C35.47233765 58.80536041 34.25912842 58.80823059 33.00915527 58.81118774 C30.44018081 58.81323225 27.87119091 58.80767555 25.30224609 58.79516602 C21.35804612 58.77911885 17.41487102 58.79500277 13.47070312 58.81420898 C10.97981543 58.81222662 8.48892838 58.8083831 5.99804688 58.80249023 C4.81158569 58.80856293 3.62512451 58.81463562 2.40270996 58.82089233 C0.76090759 58.80670761 0.76090759 58.80670761 -0.9140625 58.79223633 C-1.88065796 58.78984955 -2.84725342 58.78746277 -3.84313965 58.78500366 C-4.6071106 58.65928986 -5.37108154 58.53357605 -6.15820312 58.40405273 C-8.34499428 55.123866 -8.41354988 54.14371084 -8.43286133 50.33764648 C-8.44239334 49.30647705 -8.45192535 48.27530762 -8.46174622 47.21289062 C-8.46083481 46.10034912 -8.4599234 44.98780762 -8.45898438 43.84155273 C-8.4632695 42.69871826 -8.46755463 41.55588379 -8.4719696 40.37841797 C-8.47771557 37.96086286 -8.47821122 35.54329047 -8.47387695 33.12573242 C-8.47071564 29.41872824 -8.49417858 25.71252077 -8.51953125 22.00561523 C-8.52180399 19.65926208 -8.52250786 17.31290677 -8.52148438 14.96655273 C-8.535299 13.29774048 -8.535299 13.29774048 -8.5493927 11.59521484 C-8.54316391 10.56404541 -8.53693512 9.53287598 -8.53051758 8.47045898 C-8.531147 7.56239502 -8.53177643 6.65433105 -8.53242493 5.71875 C-8.15820312 3.40405273 -8.15820312 3.40405273 -6.95732117 1.61265564 C-4.53833628 -0.01235845 -2.90576947 0.01695759 0 0 Z " fill="#685CA7" transform="translate(92.158203125,347.595947265625)"/>
<path d="M0 0 C1.07443863 -0.00938095 2.14887726 -0.0187619 3.25587463 -0.02842712 C4.41530075 -0.01719315 5.57472687 -0.00595917 6.76928711 0.00561523 C7.95888535 0.00416 9.14848358 0.00270477 10.37413025 0.00120544 C12.89007007 0.00286636 15.40601985 0.01444896 17.921875 0.03515625 C21.78485998 0.06412073 25.64647461 0.0557663 29.50952148 0.04272461 C31.9502834 0.04896128 34.39104096 0.05735166 36.83178711 0.06811523 C38.57396263 0.06371178 38.57396263 0.06371178 40.35133362 0.05921936 C41.42262009 0.07190353 42.49390656 0.08458771 43.59765625 0.09765625 C44.54347061 0.10305923 45.48928497 0.10846222 46.46376038 0.11402893 C47.58759377 0.30593056 47.58759377 0.30593056 48.73413086 0.50170898 C50.92415995 3.78675262 50.98624198 4.7571222 50.99291992 8.56811523 C50.99922424 9.59928467 51.00552856 10.6304541 51.01202393 11.69287109 C51.00797546 12.8054126 51.003927 13.9179541 50.99975586 15.06420898 C51.00262604 16.77846069 51.00262604 16.77846069 51.0055542 18.52734375 C51.0069159 20.94490784 51.0032205 23.36247924 50.99487305 25.7800293 C50.9841736 29.48690162 50.99476912 33.19328929 51.00756836 36.90014648 C51.00624676 39.24650172 51.00368437 41.59285666 50.99975586 43.93920898 C51.00380432 45.05175049 51.00785278 46.16429199 51.01202393 47.31054688 C51.0057196 48.34171631 50.99941528 49.37288574 50.99291992 50.43530273 C50.99132874 51.3433667 50.98973755 52.25143066 50.98809814 53.18701172 C50.73413086 55.50170898 50.73413086 55.50170898 48.73413086 58.50170898 C46.46376038 58.88938904 46.46376038 58.88938904 43.59765625 58.90576172 C41.99072655 58.92478798 41.99072655 58.92478798 40.35133362 58.94419861 C39.18988327 58.94126297 38.02843292 58.93832733 36.83178711 58.93530273 C35.04882484 58.94316551 35.04882484 58.94316551 33.22984314 58.95118713 C30.71215599 58.95762037 28.19443883 58.95625363 25.67675781 58.94775391 C21.81578207 58.93925116 17.95628811 58.96797847 14.09545898 58.99975586 C11.65340214 59.001368 9.21134266 59.00079009 6.76928711 58.99780273 C5.03014793 59.0146537 5.03014793 59.0146537 3.25587463 59.03184509 C2.181436 59.02246414 1.10699738 59.01308319 0 59.00341797 C-0.94660995 59.0032518 -1.89321991 59.00308563 -2.86851501 59.00291443 C-5.26586914 58.50170898 -5.26586914 58.50170898 -7.07072449 56.78163147 C-8.4540767 54.14267408 -8.64588179 52.4903608 -8.65405273 49.52124023 C-8.66350922 48.53341553 -8.6729657 47.54559082 -8.68270874 46.52783203 C-8.67663605 45.46733643 -8.67056335 44.40684082 -8.66430664 43.31420898 C-8.66717682 42.21955322 -8.670047 41.12489746 -8.67300415 39.99707031 C-8.67504466 37.68383263 -8.66951576 35.37057768 -8.65698242 33.05737305 C-8.64092932 29.51498868 -8.65683234 25.97374533 -8.67602539 22.43139648 C-8.67404296 20.18399813 -8.67019928 17.93660049 -8.66430664 15.68920898 C-8.67037933 14.62871338 -8.67645203 13.56821777 -8.68270874 12.47558594 C-8.67325226 11.48776123 -8.66379578 10.49993652 -8.65405273 9.48217773 C-8.65166595 8.61488037 -8.64927917 7.74758301 -8.64682007 6.85400391 C-7.76495948 1.40869314 -5.26736285 0.00092463 0 0 Z " fill="#675BA6" transform="translate(377.265869140625,178.498291015625)"/>
<path d="M0 0 C1.05119019 -0.00938095 2.10238037 -0.0187619 3.1854248 -0.02842712 C4.31984009 -0.01719315 5.45425537 -0.00595917 6.62304688 0.00561523 C8.37059265 0.00343239 8.37059265 0.00343239 10.15344238 0.00120544 C12.6181081 0.00286641 15.08278398 0.01444955 17.54736328 0.03515625 C21.32694408 0.06409526 25.1051219 0.05577145 28.88476562 0.04272461 C31.27669955 0.04896216 33.66862903 0.05735322 36.06054688 0.06811523 C37.7621698 0.06371178 37.7621698 0.06371178 39.49816895 0.05921936 C40.54935913 0.07190353 41.60054932 0.08458771 42.68359375 0.09765625 C44.07233704 0.10576073 44.07233704 0.10576073 45.48913574 0.11402893 C47.84179688 0.50170898 47.84179688 0.50170898 49.64091492 1.71031189 C51.24734669 4.10668164 51.21610516 5.69163905 51.21411133 8.56811523 C51.22345451 10.11486938 51.22345451 10.11486938 51.23298645 11.69287109 C51.2237767 12.8054126 51.21456696 13.9179541 51.20507812 15.06420898 C51.20582588 16.77846069 51.20582588 16.77846069 51.20658875 18.52734375 C51.20424701 20.94492327 51.19451271 23.36250518 51.17797852 25.7800293 C51.15439075 29.48695609 51.15741652 33.19316376 51.1640625 36.90014648 C51.15848575 39.24650495 51.1513759 41.59286038 51.14257812 43.93920898 C51.14394524 45.60802124 51.14394524 45.60802124 51.14533997 47.31054688 C51.13580795 48.34171631 51.12627594 49.37288574 51.11645508 50.43530273 C51.11184769 51.3433667 51.1072403 52.25143066 51.10249329 53.18701172 C50.84179688 55.50170898 50.84179688 55.50170898 48.84179688 58.50170898 C46.57142639 58.88938904 46.57142639 58.88938904 43.70532227 58.90576172 C42.09839256 58.92478798 42.09839256 58.92478798 40.45899963 58.94419861 C39.29754929 58.94126297 38.13609894 58.93832733 36.93945312 58.93530273 C35.15649086 58.94316551 35.15649086 58.94316551 33.33750916 58.95118713 C30.81982201 58.95762037 28.30210485 58.95625363 25.78442383 58.94775391 C21.92344809 58.93925116 18.06395412 58.96797847 14.203125 58.99975586 C11.76106815 59.001368 9.31900868 59.00079009 6.87695312 58.99780273 C5.13781395 59.0146537 5.13781395 59.0146537 3.36354065 59.03184509 C2.28910202 59.02246414 1.21466339 59.01308319 0.10766602 59.00341797 C-0.83894394 59.0032518 -1.78555389 59.00308563 -2.760849 59.00291443 C-5.15820312 58.50170898 -5.15820312 58.50170898 -6.96305847 56.78163147 C-8.34641068 54.14267408 -8.53821578 52.4903608 -8.54638672 49.52124023 C-8.5558432 48.53341553 -8.56529968 47.54559082 -8.57504272 46.52783203 C-8.56897003 45.46733643 -8.56289734 44.40684082 -8.55664062 43.31420898 C-8.5595108 42.21955322 -8.56238098 41.12489746 -8.56533813 39.99707031 C-8.56737864 37.68383263 -8.56184975 35.37057768 -8.54931641 33.05737305 C-8.5332633 29.51498868 -8.54916632 25.97374533 -8.56835938 22.43139648 C-8.56637694 20.18399813 -8.56253327 17.93660049 -8.55664062 15.68920898 C-8.56271332 14.62871338 -8.56878601 13.56821777 -8.57504272 12.47558594 C-8.56558624 11.48776123 -8.55612976 10.49993652 -8.54638672 9.48217773 C-8.54399994 8.61488037 -8.54161316 7.74758301 -8.53915405 6.85400391 C-7.66853584 1.47811256 -5.2180193 0.00093653 0 0 Z " fill="#665AA6" transform="translate(377.158203125,347.498291015625)"/>
<path d="M0 0 C2.27037048 -0.38768005 2.27037048 -0.38768005 5.13647461 -0.40405273 C6.74340431 -0.42307899 6.74340431 -0.42307899 8.38279724 -0.44248962 C9.54424759 -0.43955399 10.70569794 -0.43661835 11.90234375 -0.43359375 C13.09098526 -0.4388356 14.27962677 -0.44407745 15.50428772 -0.44947815 C18.02197487 -0.45591138 20.53969203 -0.45454464 23.05737305 -0.44604492 C26.91834879 -0.43754218 30.77784275 -0.46626949 34.63867188 -0.49804688 C37.08072872 -0.49965902 39.5227882 -0.49908111 41.96484375 -0.49609375 C43.70398293 -0.51294472 43.70398293 -0.51294472 45.47825623 -0.53013611 C46.55269485 -0.52075516 47.62713348 -0.51137421 48.73413086 -0.50170898 C49.68074081 -0.50154282 50.62735077 -0.50137665 51.60264587 -0.50120544 C54 0 54 0 55.80485535 1.72007751 C57.18820756 4.3590349 57.38001265 6.01134818 57.38818359 8.98046875 C57.39764008 9.96829346 57.40709656 10.95611816 57.4168396 11.97387695 C57.41076691 13.03437256 57.40469421 14.09486816 57.3984375 15.1875 C57.40130768 16.28215576 57.40417786 17.37681152 57.40713501 18.50463867 C57.40917552 20.81787636 57.40364662 23.1311313 57.39111328 25.44433594 C57.37506018 28.98672031 57.3909632 32.52796365 57.41015625 36.0703125 C57.40817382 38.31771085 57.40433014 40.5651085 57.3984375 42.8125 C57.40451019 43.87299561 57.41058289 44.93349121 57.4168396 46.02612305 C57.40738312 47.01394775 57.39792664 48.00177246 57.38818359 49.01953125 C57.38579681 49.88682861 57.38341003 50.75412598 57.38095093 51.64770508 C56.90343588 54.5962639 56.15839817 55.93528834 54 58 C51.64733887 58.50120544 51.64733887 58.50120544 48.84179688 58.50170898 C47.79060669 58.51108994 46.7394165 58.52047089 45.65637207 58.53013611 C44.52195679 58.51890213 43.3875415 58.50766815 42.21875 58.49609375 C40.47120422 58.4982766 40.47120422 58.4982766 38.68835449 58.50050354 C36.22368877 58.49884258 33.75901289 58.48725944 31.29443359 58.46655273 C27.5148528 58.43761372 23.73667497 58.44593754 19.95703125 58.45898438 C17.56509733 58.45274683 15.17316785 58.44435577 12.78125 58.43359375 C11.07962708 58.43799721 11.07962708 58.43799721 9.34362793 58.44248962 C8.29243774 58.42980545 7.24124756 58.41712128 6.15820312 58.40405273 C5.23237427 58.39864975 4.30654541 58.39324677 3.35266113 58.38768005 C1 58 1 58 -0.79911804 56.79139709 C-2.40554981 54.39502734 -2.37430828 52.81006994 -2.37231445 49.93359375 C-2.37854324 48.90242432 -2.38477203 47.87125488 -2.39118958 46.80883789 C-2.38197983 45.69629639 -2.37277008 44.58375488 -2.36328125 43.4375 C-2.36377975 42.29466553 -2.36427826 41.15183105 -2.36479187 39.97436523 C-2.36245013 37.55678571 -2.35271584 35.13920381 -2.33618164 32.72167969 C-2.31259388 29.01475289 -2.31561964 25.30854523 -2.32226562 21.6015625 C-2.31668888 19.25520403 -2.30957902 16.9088486 -2.30078125 14.5625 C-2.30169266 13.4499585 -2.30260406 12.33741699 -2.30354309 11.19116211 C-2.28924507 9.64440796 -2.28924507 9.64440796 -2.2746582 8.06640625 C-2.27005081 7.15834229 -2.26544342 6.25027832 -2.26069641 5.31469727 C-2 3 -2 3 0 0 Z " fill="#675BA6" transform="translate(86,179)"/>
<path d="M0 0 C1.01114868 -0.00953201 2.02229736 -0.01906403 3.06408691 -0.02888489 C4.7000885 -0.02751778 4.7000885 -0.02751778 6.36914062 -0.02612305 C7.48977905 -0.03040817 8.61041748 -0.0346933 9.76501465 -0.03910828 C12.13549117 -0.04485395 14.50598532 -0.04535011 16.87646484 -0.04101562 C20.51104658 -0.03785427 24.14481575 -0.06131766 27.77929688 -0.08666992 C30.08007709 -0.08894267 32.38085951 -0.08964653 34.68164062 -0.08862305 C35.77230835 -0.09783279 36.86297607 -0.10704254 37.98669434 -0.11653137 C38.99784302 -0.11030258 40.0089917 -0.10407379 41.05078125 -0.09765625 C42.38622986 -0.09860039 42.38622986 -0.09860039 43.74865723 -0.0995636 C46.02539062 0.2746582 46.02539062 0.2746582 47.81204224 1.48127747 C49.43243439 3.87628627 49.40599661 5.45811824 49.41357422 8.34106445 C49.4230307 9.37223389 49.43248718 10.40340332 49.44223022 11.46582031 C49.43615753 12.57836182 49.43008484 13.69090332 49.42382812 14.8371582 C49.4266983 15.97999268 49.42956848 17.12282715 49.43252563 18.30029297 C49.4345682 20.71785985 49.42902501 23.13544319 49.41650391 25.55297852 C49.40045383 29.26005905 49.41634703 32.96604921 49.43554688 36.6730957 C49.43356448 39.01945228 49.42972088 41.36580818 49.42382812 43.7121582 C49.43293716 45.38097046 49.43293716 45.38097046 49.44223022 47.08349609 C49.43277374 48.11466553 49.42331726 49.14583496 49.41357422 50.20825195 C49.41118744 51.11631592 49.40880066 52.02437988 49.40634155 52.95996094 C49.02539062 55.2746582 49.02539062 55.2746582 47.81204224 57.06803894 C45.44131715 58.66911356 43.90277864 58.64898897 41.05078125 58.64697266 C40.03963257 58.65320145 39.02848389 58.65943024 37.98669434 58.66584778 C36.89602661 58.65663803 35.80535889 58.64742828 34.68164062 58.63793945 C33.5610022 58.63843796 32.44036377 58.63893646 31.2857666 58.63945007 C28.91526518 58.63710846 26.54476132 58.62737484 24.17431641 58.61083984 C20.53981359 58.58725181 16.90604424 58.59027794 13.27148438 58.59692383 C10.97069874 58.59134708 8.6699162 58.58423722 6.36914062 58.57543945 C5.2784729 58.57635086 4.18780518 58.57726227 3.06408691 58.57820129 C2.05293823 58.56866928 1.04178955 58.55913727 0 58.54931641 C-1.33544861 58.54240532 -1.33544861 58.54240532 -2.69787598 58.53535461 C-4.97460938 58.2746582 -4.97460938 58.2746582 -7.97460938 56.2746582 C-8.3555603 53.99755859 -8.3555603 53.99755859 -8.36279297 51.12231445 C-8.37224945 50.04780029 -8.38170593 48.97328613 -8.39144897 47.86621094 C-8.38537628 46.70162354 -8.37930359 45.53703613 -8.37304688 44.3371582 C-8.37591705 43.14614502 -8.37878723 41.95513184 -8.38174438 40.72802734 C-8.38378883 38.20613124 -8.37823255 35.68421942 -8.36572266 33.16235352 C-8.34967535 29.29057534 -8.36555956 25.4198412 -8.38476562 21.5480957 C-8.38278326 19.10278089 -8.37893973 16.65746672 -8.37304688 14.2121582 C-8.37911957 13.0475708 -8.38519226 11.8829834 -8.39144897 10.68310547 C-8.38199249 9.60859131 -8.37253601 8.53407715 -8.36279297 7.42700195 C-8.36040619 6.47817139 -8.35801941 5.52934082 -8.3555603 4.55175781 C-8.2298465 3.80031494 -8.10413269 3.04887207 -7.97460938 2.2746582 C-4.71541806 0.10186399 -3.77286608 0.01952498 0 0 Z M2.02539062 11.2746582 C2.02539062 23.1546582 2.02539062 35.0346582 2.02539062 47.2746582 C14.23539062 47.2746582 26.44539063 47.2746582 39.02539062 47.2746582 C39.02539062 35.3946582 39.02539062 23.5146582 39.02539062 11.2746582 C26.81539063 11.2746582 14.60539062 11.2746582 2.02539062 11.2746582 Z " fill="#675BA6" transform="translate(273.974609375,178.725341796875)"/>
<path d="M0 0 C1.51672302 -0.00934319 1.51672302 -0.00934319 3.06408691 -0.01887512 C4.15475464 -0.00966537 5.24542236 -0.00045563 6.36914062 0.0090332 C7.48977905 0.0085347 8.61041748 0.00803619 9.76501465 0.00752258 C12.13551607 0.0098642 14.50601993 0.01959781 16.87646484 0.03613281 C20.51096766 0.05972085 24.14473701 0.05669471 27.77929688 0.05004883 C30.08008251 0.05562558 32.38086505 0.06273544 34.68164062 0.0715332 C35.77230835 0.0706218 36.86297607 0.06971039 37.98669434 0.06877136 C39.50341736 0.08306938 39.50341736 0.08306938 41.05078125 0.09765625 C41.94108032 0.10226364 42.83137939 0.10687103 43.74865723 0.11161804 C46.02539062 0.37231445 46.02539062 0.37231445 49.02539062 2.37231445 C49.40634155 4.64941406 49.40634155 4.64941406 49.41357422 7.5246582 C49.4230307 8.59917236 49.43248718 9.67368652 49.44223022 10.78076172 C49.43615753 11.94534912 49.43008484 13.10993652 49.42382812 14.30981445 C49.4266983 15.50082764 49.42956848 16.69184082 49.43252563 17.91894531 C49.43457008 20.44084141 49.4290138 22.96275324 49.41650391 25.48461914 C49.4004566 29.35639731 49.41634081 33.22713145 49.43554688 37.09887695 C49.43356451 39.54419177 49.42972098 41.98950593 49.42382812 44.43481445 C49.42990082 45.59940186 49.43597351 46.76398926 49.44223022 47.96386719 C49.43277374 49.03838135 49.42331726 50.11289551 49.41357422 51.2199707 C49.41118744 52.16880127 49.40880066 53.11763184 49.40634155 54.09521484 C49.28062775 54.84665771 49.15491394 55.59810059 49.02539062 56.37231445 C45.76619931 58.54510866 44.82364733 58.62744768 41.05078125 58.64697266 C39.53405823 58.66127068 39.53405823 58.66127068 37.98669434 58.67585754 C36.35069275 58.67449043 36.35069275 58.67449043 34.68164062 58.6730957 C33.5610022 58.67738083 32.44036377 58.68166595 31.2857666 58.68608093 C28.91529008 58.6918266 26.54479593 58.69232276 24.17431641 58.68798828 C20.53973467 58.68482693 16.9059655 58.70829031 13.27148438 58.73364258 C10.97070416 58.73591532 8.66992174 58.73661918 6.36914062 58.7355957 C5.2784729 58.74480545 4.18780518 58.7540152 3.06408691 58.76350403 C2.05293823 58.75727524 1.04178955 58.75104645 0 58.74462891 C-0.89029907 58.74525833 -1.78059814 58.74588776 -2.69787598 58.74653625 C-4.97460938 58.37231445 -4.97460938 58.37231445 -6.76126099 57.16569519 C-8.38165314 54.77068638 -8.35521536 53.18885442 -8.36279297 50.3059082 C-8.37224945 49.27473877 -8.38170593 48.24356934 -8.39144897 47.18115234 C-8.38537628 46.06861084 -8.37930359 44.95606934 -8.37304688 43.80981445 C-8.37591705 42.66697998 -8.37878723 41.52414551 -8.38174438 40.34667969 C-8.38378695 37.9291128 -8.37824376 35.51152946 -8.36572266 33.09399414 C-8.34967258 29.38691361 -8.36556578 25.68092345 -8.38476562 21.97387695 C-8.38278323 19.62752037 -8.37893963 17.28116447 -8.37304688 14.93481445 C-8.37911957 13.82227295 -8.38519226 12.70973145 -8.39144897 11.56347656 C-8.38199249 10.53230713 -8.37253601 9.5011377 -8.36279297 8.4387207 C-8.36040619 7.53065674 -8.35801941 6.62259277 -8.3555603 5.68701172 C-7.97460938 3.37231445 -7.97460938 3.37231445 -6.76126099 1.57893372 C-4.3905359 -0.0221409 -2.85199739 -0.00201631 0 0 Z M2.02539062 11.37231445 C2.02539062 23.25231445 2.02539062 35.13231445 2.02539062 47.37231445 C14.23539063 47.37231445 26.44539063 47.37231445 39.02539062 47.37231445 C39.02539062 35.49231445 39.02539062 23.61231445 39.02539062 11.37231445 C26.81539062 11.37231445 14.60539062 11.37231445 2.02539062 11.37231445 Z " fill="#675BA6" transform="translate(196.974609375,178.627685546875)"/>
<path d="M0 0 C1.05449341 -0.00630432 2.10898682 -0.01260864 3.19543457 -0.019104 C4.909505 -0.01303131 4.909505 -0.01303131 6.65820312 -0.00683594 C8.41142883 -0.00970612 8.41142883 -0.00970612 10.20007324 -0.01263428 C12.67488825 -0.0139972 15.14971039 -0.01029335 17.62451172 -0.00195312 C21.42366517 0.00874461 25.22234572 -0.00184512 29.02148438 -0.01464844 C31.42122501 -0.01332686 33.82096534 -0.01076451 36.22070312 -0.00683594 C37.36341675 -0.0108844 38.50613037 -0.01493286 39.68347168 -0.019104 C41.26521179 -0.00964752 41.26521179 -0.00964752 42.87890625 0 C43.80997192 0.00159119 44.7410376 0.00318237 45.70031738 0.00482178 C47.93945312 0.25878906 47.93945312 0.25878906 49.93945312 2.25878906 C50.19342041 4.4979248 50.19342041 4.4979248 50.19824219 7.31933594 C50.20454651 8.37382935 50.21085083 9.42832275 50.21734619 10.51477051 C50.21329773 11.65748413 50.20924927 12.80019775 50.20507812 13.97753906 C50.2079483 15.73076477 50.2079483 15.73076477 50.21087646 17.51940918 C50.21223938 19.99422419 50.20853554 22.46904632 50.20019531 24.94384766 C50.18949758 28.74300111 50.20008731 32.54168166 50.21289062 36.34082031 C50.21156905 38.74056094 50.2090067 41.14030128 50.20507812 43.54003906 C50.20912659 44.68275269 50.21317505 45.82546631 50.21734619 47.00280762 C50.21104187 48.05730103 50.20473755 49.11179443 50.19824219 50.19824219 C50.196651 51.12930786 50.19505981 52.06037354 50.19342041 53.01965332 C49.93945312 55.25878906 49.93945312 55.25878906 47.93945312 57.25878906 C45.70031738 57.51275635 45.70031738 57.51275635 42.87890625 57.51757812 C41.29716614 57.52703461 41.29716614 57.52703461 39.68347168 57.53668213 C38.54075806 57.53263367 37.39804443 57.52858521 36.22070312 57.52441406 C34.46747742 57.52728424 34.46747742 57.52728424 32.67883301 57.5302124 C30.204018 57.53157532 27.72919586 57.52787147 25.25439453 57.51953125 C21.45524108 57.50883352 17.65656053 57.51942324 13.85742188 57.53222656 C11.45768124 57.53090499 9.05794091 57.52834264 6.65820312 57.52441406 C4.94413269 57.53048676 4.94413269 57.53048676 3.19543457 57.53668213 C2.14094116 57.53037781 1.08644775 57.52407349 0 57.51757812 C-0.93106567 57.51598694 -1.86213135 57.51439575 -2.82141113 57.51275635 C-5.06054688 57.25878906 -5.06054688 57.25878906 -7.06054688 55.25878906 C-7.31451416 53.01965332 -7.31451416 53.01965332 -7.31933594 50.19824219 C-7.32879242 48.61650208 -7.32879242 48.61650208 -7.33843994 47.00280762 C-7.33439148 45.86009399 -7.33034302 44.71738037 -7.32617188 43.54003906 C-7.32808533 42.37122192 -7.32999878 41.20240479 -7.33197021 39.99816895 C-7.33333313 37.52335393 -7.32962929 35.0485318 -7.32128906 32.57373047 C-7.31059133 28.77457702 -7.32118106 24.97589647 -7.33398438 21.17675781 C-7.3326628 18.77701718 -7.33010045 16.37727684 -7.32617188 13.97753906 C-7.33022034 12.83482544 -7.3342688 11.69211182 -7.33843994 10.51477051 C-7.33213562 9.4602771 -7.3258313 8.40578369 -7.31933594 7.31933594 C-7.31774475 6.38827026 -7.31615356 5.45720459 -7.31451416 4.4979248 C-6.78578935 -0.16364652 -3.98984247 0.00681862 0 0 Z M2.93945312 10.25878906 C2.93945312 22.46878906 2.93945312 34.67878906 2.93945312 47.25878906 C15.14945312 47.25878906 27.35945313 47.25878906 39.93945312 47.25878906 C39.93945312 35.04878906 39.93945312 22.83878906 39.93945312 10.25878906 C27.72945313 10.25878906 15.51945312 10.25878906 2.93945312 10.25878906 Z " fill="#665AA6" transform="translate(273.060546875,263.7412109375)"/>
<path d="M0 0 C1.05449341 -0.00630432 2.10898682 -0.01260864 3.19543457 -0.019104 C4.909505 -0.01303131 4.909505 -0.01303131 6.65820312 -0.00683594 C8.41142883 -0.00970612 8.41142883 -0.00970612 10.20007324 -0.01263428 C12.67488825 -0.0139972 15.14971039 -0.01029335 17.62451172 -0.00195312 C21.42366517 0.00874461 25.22234572 -0.00184512 29.02148438 -0.01464844 C31.42122501 -0.01332686 33.82096534 -0.01076451 36.22070312 -0.00683594 C37.36341675 -0.0108844 38.50613037 -0.01493286 39.68347168 -0.019104 C41.26521179 -0.00964752 41.26521179 -0.00964752 42.87890625 0 C43.80997192 0.00159119 44.7410376 0.00318237 45.70031738 0.00482178 C47.93945312 0.25878906 47.93945312 0.25878906 49.93945312 2.25878906 C50.19342041 4.4979248 50.19342041 4.4979248 50.19824219 7.31933594 C50.20454651 8.37382935 50.21085083 9.42832275 50.21734619 10.51477051 C50.21329773 11.65748413 50.20924927 12.80019775 50.20507812 13.97753906 C50.2079483 15.73076477 50.2079483 15.73076477 50.21087646 17.51940918 C50.21223938 19.99422419 50.20853554 22.46904632 50.20019531 24.94384766 C50.18949758 28.74300111 50.20008731 32.54168166 50.21289062 36.34082031 C50.21156905 38.74056094 50.2090067 41.14030128 50.20507812 43.54003906 C50.20912659 44.68275269 50.21317505 45.82546631 50.21734619 47.00280762 C50.21104187 48.05730103 50.20473755 49.11179443 50.19824219 50.19824219 C50.196651 51.12930786 50.19505981 52.06037354 50.19342041 53.01965332 C49.93945312 55.25878906 49.93945312 55.25878906 47.93945312 57.25878906 C45.70031738 57.51275635 45.70031738 57.51275635 42.87890625 57.51757812 C41.29716614 57.52703461 41.29716614 57.52703461 39.68347168 57.53668213 C38.54075806 57.53263367 37.39804443 57.52858521 36.22070312 57.52441406 C34.46747742 57.52728424 34.46747742 57.52728424 32.67883301 57.5302124 C30.204018 57.53157532 27.72919586 57.52787147 25.25439453 57.51953125 C21.45524108 57.50883352 17.65656053 57.51942324 13.85742188 57.53222656 C11.45768124 57.53090499 9.05794091 57.52834264 6.65820312 57.52441406 C4.94413269 57.53048676 4.94413269 57.53048676 3.19543457 57.53668213 C2.14094116 57.53037781 1.08644775 57.52407349 0 57.51757812 C-0.93106567 57.51598694 -1.86213135 57.51439575 -2.82141113 57.51275635 C-5.06054688 57.25878906 -5.06054688 57.25878906 -7.06054688 55.25878906 C-7.31451416 53.01965332 -7.31451416 53.01965332 -7.31933594 50.19824219 C-7.32879242 48.61650208 -7.32879242 48.61650208 -7.33843994 47.00280762 C-7.33439148 45.86009399 -7.33034302 44.71738037 -7.32617188 43.54003906 C-7.32808533 42.37122192 -7.32999878 41.20240479 -7.33197021 39.99816895 C-7.33333313 37.52335393 -7.32962929 35.0485318 -7.32128906 32.57373047 C-7.31059133 28.77457702 -7.32118106 24.97589647 -7.33398438 21.17675781 C-7.3326628 18.77701718 -7.33010045 16.37727684 -7.32617188 13.97753906 C-7.33022034 12.83482544 -7.3342688 11.69211182 -7.33843994 10.51477051 C-7.33213562 9.4602771 -7.3258313 8.40578369 -7.31933594 7.31933594 C-7.31774475 6.38827026 -7.31615356 5.45720459 -7.31451416 4.4979248 C-6.78578935 -0.16364652 -3.98984247 0.00681862 0 0 Z M2.93945312 10.25878906 C2.93945312 22.46878906 2.93945312 34.67878906 2.93945312 47.25878906 C15.14945313 47.25878906 27.35945313 47.25878906 39.93945312 47.25878906 C39.93945312 35.04878906 39.93945312 22.83878906 39.93945312 10.25878906 C27.72945312 10.25878906 15.51945312 10.25878906 2.93945312 10.25878906 Z " fill="#665AA6" transform="translate(196.060546875,263.7412109375)"/>
<path d="M0 0 C12.54 0 25.08 0 38 0 C38 12.54 38 25.08 38 38 C25.46 38 12.92 38 0 38 C0 25.46 0 12.92 0 0 Z " fill="#CCC0F2" transform="translate(380,358)"/>
<path d="M0 0 C12.21 0 24.42 0 37 0 C37 12.54 37 25.08 37 38 C24.79 38 12.58 38 0 38 C0 25.46 0 12.92 0 0 Z " fill="#CDC1F4" transform="translate(380,189)"/>
<path d="M0 0 C12.21 0 24.42 0 37 0 C37 12.54 37 25.08 37 38 C24.79 38 12.58 38 0 38 C0 25.46 0 12.92 0 0 Z " fill="#CDC1F4" transform="translate(95,189)"/>
<path d="M0 0 C12.21 0 24.42 0 37 0 C37 12.21 37 24.42 37 37 C24.79 37 12.58 37 0 37 C0 24.79 0 12.58 0 0 Z " fill="#CEC2F4" transform="translate(95,359)"/>
<path d="M0 0 C12.21 0 24.42 0 37 0 C37 12.21 37 24.42 37 37 C24.79 37 12.58 37 0 37 C0 24.79 0 12.58 0 0 Z " fill="#CFC3F5" transform="translate(380,274)"/>
<path d="M0 0 C12.21 0 24.42 0 37 0 C37 12.21 37 24.42 37 37 C24.79 37 12.58 37 0 37 C0 24.79 0 12.58 0 0 Z " fill="#CFC3F5" transform="translate(95,274)"/>
<path d="M0 0 C10.89 0 21.78 0 33 0 C31 4 31 4 28.8125 6.875 C26.76711929 9.82163919 26.76711929 9.82163919 26.9375 12.9375 C28.12240381 16.35281099 29.73452024 18.74996507 31.94140625 21.58203125 C33 23 33 23 33 24 C22.11 24 11.22 24 0 24 C0 16.08 0 8.16 0 0 Z " fill="#CEC2F4" transform="translate(261,21)"/>
</svg>
