<svg width="735" height="700" viewBox="0 0 735 700" fill="none" xmlns="http://www.w3.org/2000/svg">
<path d="M0 0H628V628H0V0Z" fill="#FFC72C"/>
<path d="M645.923 77.6717C641.895 100.515 620.111 115.768 597.268 111.74C574.424 107.712 559.171 85.9288 563.199 63.0853C567.227 40.2417 589.011 24.9887 611.854 29.0166C634.698 33.0445 649.951 54.8282 645.923 77.6717Z" fill="#009639"/>
<path d="M470.307 73.0324L537.031 322.05C539.417 330.413 544.97 335.758 552.107 338.801C553.784 339.516 555.528 340.06 557.306 340.41C559.096 340.689 560.922 340.775 562.742 340.677C570.489 340.258 577.536 337.135 582.638 330.092L730.507 118.913C738.083 108.093 735.454 93.1796 724.634 85.6034C713.814 78.0271 700.772 81.6533 691.324 91.4767L582.537 197.317L516.51 60.6523C510.992 48.1901 499.977 40.322 487.219 43.7407C474.46 47.1594 466.888 60.2737 470.307 73.0324Z" fill="#009639"/>
<path d="M269.139 182.033C289.228 193.631 296.11 219.317 284.512 239.406C272.914 259.494 247.228 266.377 227.139 254.779C207.051 243.181 200.168 217.494 211.766 197.406C223.364 177.317 249.051 170.435 269.139 182.033Z" fill="#009639"/>
<path d="M204.716 345.471L461.537 367.94C470.212 368.559 477.134 365.168 482.434 359.503C483.679 358.171 484.787 356.718 485.724 355.167C486.598 353.58 487.304 351.894 487.834 350.15C490.09 342.727 489.565 335.037 484.692 327.834L336.823 116.655C329.247 105.835 314.333 103.205 303.513 110.781C292.693 118.358 291.64 131.853 297.64 144.091L359.89 282.517L208.885 297.82C195.287 298.742 184.126 306.402 182.975 319.561C181.823 332.719 191.557 344.32 204.716 345.471Z" fill="#009639"/>
<path d="M271.569 569.532C289.338 554.622 315.83 556.939 330.74 574.708C345.65 592.478 343.333 618.969 325.563 633.879C307.794 648.79 281.303 646.472 266.392 628.703C251.482 610.933 253.8 584.442 271.569 569.532Z" fill="#009639"/>
<path d="M403.117 685.969L512.069 452.322C515.617 444.381 514.799 436.717 511.288 429.799C510.462 428.173 509.475 426.635 508.339 425.224C507.147 423.86 505.803 422.621 504.346 421.526C498.142 416.867 490.737 414.73 482.301 416.846L233.283 483.57C220.525 486.988 212.953 500.103 216.372 512.861C219.79 525.62 232.112 531.225 245.663 529.773L397.032 518.621L359.765 665.754C355.982 678.848 359.362 691.955 371.333 697.538C383.305 703.12 397.534 697.94 403.117 685.969Z" fill="#009639"/>
</svg>
